<?xml version="1.0" standalone="no"?>
<!DOCTYPE svg PUBLIC "-//W3C//DTD SVG 20010904//EN"
 "http://www.w3.org/TR/2001/REC-SVG-20010904/DTD/svg10.dtd">
<svg version="1.0" xmlns="http://www.w3.org/2000/svg"
 width="700.000000pt" height="700.000000pt" viewBox="0 0 700.000000 700.000000"
 preserveAspectRatio="xMidYMid meet">
<metadata>
Created by potrace 1.14, written by Peter Selinger 2001-2017
</metadata>
<g transform="translate(0.000000,700.000000) scale(0.100000,-0.100000)"
fill="#000000" stroke="none">
<path d="M0 3500 l0 -3500 3500 0 3500 0 0 3500 0 3500 -3500 0 -3500 0 0
-3500z m1672 1360 c196 -476 363 -877 370 -892 13 -26 29 3 492 857 264 487
482 885 486 885 3 0 109 -315 234 -699 l228 -700 -737 -1508 c-406 -829 -741
-1511 -744 -1515 -4 -5 -1760 4226 -1838 4428 -4 12 69 14 573 12 l579 -3 357
-865z m2607 863 c0 -5 -141 -288 -312 -631 l-313 -623 -202 620 c-111 340
-202 624 -202 630 0 8 149 11 515 11 283 0 515 -3 514 -7z m2547 -20 c-4 -10
-123 -298 -264 -640 l-257 -623 -657 0 -658 0 0 -370 0 -370 503 -2 504 -3
-221 -537 -221 -537 -282 -1 -283 0 0 -670 0 -670 -560 0 -560 0 0 1572 0
1571 327 649 327 648 1154 0 c1095 0 1154 -1 1148 -17z m-3176 -2988 l0 -1445
-711 0 c-457 0 -709 3 -707 10 6 18 1413 2880 1415 2880 2 0 3 -650 3 -1445z"/>
</g>
</svg>
